<?xml version="1.0" encoding="UTF-8"?>
<svg xmlns="http://www.w3.org/2000/svg" xmlns:xlink="http://www.w3.org/1999/xlink" width="24pt" height="24pt" viewBox="0 0 24 24" version="1.1">
<g id="surface12057978">
<path style="fill-rule:nonzero;fill:rgb(0%,0%,0%);fill-opacity:1;stroke-width:10;stroke-linecap:butt;stroke-linejoin:round;stroke:rgb(80.000001%,80.000001%,80.000001%);stroke-opacity:1;stroke-miterlimit:10;" d="M 123.83 13.746776 C 142.789436 13.746776 158.253225 29.210566 158.253225 48.170001 L 158.253225 123.83 C 158.253225 142.789436 142.789436 158.253225 123.83 158.253225 L 48.170001 158.253225 C 29.210566 158.253225 13.746776 142.789436 13.746776 123.83 L 13.746776 48.170001 C 13.746776 29.210566 29.210566 13.746776 48.170001 13.746776 Z M 20.649195 48.170001 L 20.649195 123.83 C 20.649195 139.086421 32.91358 151.350806 48.170001 151.350806 L 123.83 151.350806 C 139.086421 151.350806 151.350806 139.086421 151.350806 123.83 L 151.350806 48.170001 C 151.350806 32.91358 139.086421 20.649195 123.83 20.649195 L 48.170001 20.649195 C 32.91358 20.649195 20.649195 32.91358 20.649195 48.170001 Z M 127.266398 51.606399 C 132.924604 51.606399 137.605215 56.257386 137.605215 61.915592 L 137.605215 110.084409 C 137.605215 115.742615 132.924604 120.393602 127.266398 120.393602 L 44.733604 120.393602 C 39.075397 120.393602 34.394786 115.742615 34.394786 110.084409 L 34.394786 61.915592 C 34.394786 56.257386 39.075397 51.606399 44.733604 51.606399 Z M 76.727652 89.051285 C 81.852624 94.205881 90.088129 94.205881 95.213101 89.080909 L 125.84444 58.479195 L 46.155561 58.479195 Z M 108.010721 86.000001 L 130.732419 108.662451 L 130.732419 63.33755 Z M 41.267582 108.662451 L 63.930032 86.000001 L 41.267582 63.33755 Z M 100.071457 93.939264 C 92.309938 101.700783 79.630815 101.700783 71.869296 93.939264 L 68.788388 90.858356 L 46.155561 113.520807 L 125.84444 113.520807 L 103.152365 90.858356 Z M 100.071457 93.939264 " transform="matrix(0.13186,0,0,0.13186,0.66,0.66)"/>
<path style=" stroke:none;fill-rule:nonzero;fill:rgb(0%,0%,0%);fill-opacity:1;" d="M 7.011719 2.472656 C 4.511719 2.472656 2.472656 4.511719 2.472656 7.011719 L 2.472656 16.988281 C 2.472656 19.488281 4.511719 21.527344 7.011719 21.527344 L 16.988281 21.527344 C 19.488281 21.527344 21.527344 19.488281 21.527344 16.988281 L 21.527344 7.011719 C 21.527344 4.511719 19.488281 2.472656 16.988281 2.472656 Z M 7.011719 3.382812 L 16.988281 3.382812 C 19 3.382812 20.617188 5 20.617188 7.011719 L 20.617188 16.988281 C 20.617188 19 19 20.617188 16.988281 20.617188 L 7.011719 20.617188 C 5 20.617188 3.382812 19 3.382812 16.988281 L 3.382812 7.011719 C 3.382812 5 5 3.382812 7.011719 3.382812 Z M 6.558594 7.464844 C 5.8125 7.464844 5.195312 8.078125 5.195312 8.824219 L 5.195312 15.175781 C 5.195312 15.921875 5.8125 16.535156 6.558594 16.535156 L 17.441406 16.535156 C 18.1875 16.535156 18.804688 15.921875 18.804688 15.175781 L 18.804688 8.824219 C 18.804688 8.078125 18.1875 7.464844 17.441406 7.464844 Z M 6.746094 8.371094 L 17.253906 8.371094 L 13.214844 12.40625 C 12.539062 13.082031 11.453125 13.082031 10.777344 12.402344 Z M 17.898438 9.011719 L 17.898438 14.988281 L 14.902344 12 Z M 6.101562 9.011719 L 9.089844 12 L 6.101562 14.988281 Z M 14.261719 12.640625 L 17.253906 15.628906 L 6.746094 15.628906 L 9.730469 12.640625 L 10.136719 13.046875 C 11.160156 14.070312 12.832031 14.070312 13.855469 13.046875 Z M 14.261719 12.640625 "/>
</g>
</svg>
